<svg version="1.1" viewBox="0.0 0.0 600.0 371.0" fill="none" stroke="none" stroke-linecap="square" stroke-miterlimit="10" width="600" height="371" xmlns:xlink="http://www.w3.org/1999/xlink" xmlns="http://www.w3.org/2000/svg"><path fill="#ffffff" d="M0 0L600.0 0L600.0 371.0L0 371.0L0 0Z" fill-rule="nonzero"/><path fill="#4285f4" d="M300.0 54.916668C366.01907 54.916668 424.14084 98.42609 442.74057 161.77092C461.3403 225.11575 435.9681 293.1412 380.42932 328.83383L300.0 203.68333Z" fill-rule="nonzero"/><path fill="#ea4335" d="M380.42932 328.83383C327.08765 363.11444 257.88013 359.8177 208.03854 320.62183C158.19698 281.426 138.67685 214.94655 159.41537 155.02652C180.1539 95.10649 236.59262 54.916668 300.0 54.916668L300.0 203.68333Z" fill-rule="nonzero"/><path fill="#1a1a1a" d="M19.471874 239.00012L19.471874 230.40637L20.628124 230.40637L25.14375 237.15637L25.14375 230.40637L26.2375 230.40637L26.2375 239.00012L25.065624 239.00012L20.55 232.25012L20.55 239.00012L19.471874 239.00012ZM32.409374 238.2345Q31.815624 238.7345 31.26875 238.93762Q30.7375 239.14075 30.1125 239.14075Q29.08125 239.14075 28.534374 238.64075Q27.9875 238.14075 27.9875 237.3595Q27.9875 236.90637 28.190624 236.53137Q28.39375 236.14075 28.7375 235.922Q29.08125 235.68762 29.503124 235.57825Q29.8 235.4845 30.440624 235.40637Q31.70625 235.26575 32.315624 235.047Q32.315624 234.82825 32.315624 234.78137Q32.315624 234.12512 32.01875 233.8595Q31.6125 233.51575 30.815624 233.51575Q30.08125 233.51575 29.721874 233.78137Q29.3625 234.03137 29.190624 234.68762L28.159374 234.547Q28.3 233.89075 28.628124 233.4845Q28.95625 233.07825 29.565624 232.8595Q30.175 232.64075 30.971874 232.64075Q31.76875 232.64075 32.26875 232.82825Q32.76875 233.01575 33.003124 233.297Q33.2375 233.57825 33.33125 234.01575Q33.378124 234.28137 33.378124 234.9845L33.378124 236.39075Q33.378124 237.8595 33.440624 238.25012Q33.51875 238.64075 33.721874 239.00012L32.6125 239.00012Q32.45625 238.672 32.409374 238.2345ZM32.315624 235.87512Q31.7375 236.1095 30.596874 236.28137Q29.940624 236.37512 29.675 236.50012Q29.409374 236.6095 29.253124 236.82825Q29.1125 237.047 29.1125 237.32825Q29.1125 237.75012 29.425 238.03137Q29.753124 238.31262 30.3625 238.31262Q30.971874 238.31262 31.440624 238.047Q31.925 237.78137 32.14375 237.31262Q32.315624 236.95325 32.315624 236.26575L32.315624 235.87512ZM28.596874 231.8595Q28.58125 231.25012 28.925 230.89075Q29.253124 230.51575 29.784374 230.51575Q30.14375 230.51575 30.76875 230.84387Q31.1125 231.01575 31.315624 231.01575Q31.503124 231.01575 31.596874 230.922Q31.70625 230.81262 31.753124 230.50012L32.51875 230.50012Q32.4875 231.172 32.175 231.51575Q31.8625 231.84387 31.3625 231.84387Q30.9875 231.84387 30.39375 231.51575Q30.003124 231.297 29.815624 231.297Q29.6125 231.297 29.4875 231.43762Q29.3625 231.57825 29.378124 231.8595L28.596874 231.8595ZM34.95625 235.89075Q34.95625 234.15637 35.909374 233.32825Q36.70625 232.64075 37.8625 232.64075Q39.14375 232.64075 39.95625 233.4845Q40.784374 234.31262 40.784374 235.797Q40.784374 237.00012 40.425 237.68762Q40.065624 238.37512 39.3625 238.76575Q38.675 239.14075 37.8625 239.14075Q36.565624 239.14075 35.753124 238.31262Q34.95625 237.46887 34.95625 235.89075ZM36.034374 235.89075Q36.034374 237.07825 36.55 237.672Q37.08125 238.26575 37.8625 238.26575Q38.659374 238.26575 39.175 237.672Q39.690624 237.07825 39.690624 235.8595Q39.690624 234.70325 39.159374 234.1095Q38.64375 233.51575 37.8625 233.51575Q37.08125 233.51575 36.55 234.1095Q36.034374 234.68762 36.034374 235.89075Z" fill-rule="nonzero"/><path fill="#9e9e9e" d="M19.05 253.75012L20.159374 253.65637Q20.284374 254.46887 20.721874 254.87512Q21.175 255.28137 21.815624 255.28137Q22.565624 255.28137 23.096874 254.70325Q23.628124 254.12512 23.628124 253.18762Q23.628124 252.28137 23.1125 251.76575Q22.6125 251.2345 21.784374 251.2345Q21.284374 251.2345 20.8625 251.46887Q20.45625 251.70325 20.221874 252.06262L19.2375 251.93762L20.065624 247.53137L24.346874 247.53137L24.346874 248.53137L20.909374 248.53137L20.45625 250.84387Q21.221874 250.297 22.065624 250.297Q23.190624 250.297 23.95625 251.07825Q24.7375 251.8595 24.7375 253.09387Q24.7375 254.25012 24.065624 255.1095Q23.2375 256.14075 21.815624 256.14075Q20.64375 256.14075 19.89375 255.4845Q19.159374 254.82825 19.05 253.75012ZM26.20625 254.01575L27.221874 253.922Q27.346874 254.64075 27.70625 254.96887Q28.08125 255.28137 28.64375 255.28137Q29.128124 255.28137 29.4875 255.06262Q29.8625 254.82825 30.096874 254.46887Q30.33125 254.09387 30.4875 253.46887Q30.64375 252.82825 30.64375 252.172Q30.64375 252.09387 30.64375 251.95325Q30.33125 252.45325 29.784374 252.78137Q29.2375 253.09387 28.596874 253.09387Q27.51875 253.09387 26.784374 252.32825Q26.05 251.547 26.05 250.28137Q26.05 248.96887 26.815624 248.172Q27.596874 247.37512 28.753124 247.37512Q29.58125 247.37512 30.26875 247.82825Q30.971874 248.28137 31.33125 249.12512Q31.690624 249.95325 31.690624 251.53137Q31.690624 253.172 31.33125 254.15637Q30.9875 255.12512 30.26875 255.64075Q29.565624 256.14075 28.628124 256.14075Q27.6125 256.14075 26.971874 255.59387Q26.33125 255.03137 26.20625 254.01575ZM30.51875 250.21887Q30.51875 249.31262 30.034374 248.78137Q29.565624 248.25012 28.878124 248.25012Q28.175 248.25012 27.64375 248.82825Q27.128124 249.39075 27.128124 250.31262Q27.128124 251.12512 27.628124 251.64075Q28.128124 252.15637 28.846874 252.15637Q29.58125 252.15637 30.05 251.64075Q30.51875 251.12512 30.51875 250.21887ZM33.6125 256.00012L33.6125 254.797L34.815624 254.797L34.815624 256.00012Q34.815624 256.65637 34.58125 257.06262Q34.346874 257.4845 33.846874 257.70325L33.55 257.25012Q33.878124 257.1095 34.034374 256.81262Q34.190624 256.53137 34.221874 256.00012L33.6125 256.00012ZM40.01875 256.00012L38.971874 256.00012L38.971874 249.28137Q38.58125 249.64075 37.95625 250.01575Q37.346874 250.37512 36.8625 250.547L36.8625 249.53137Q37.7375 249.1095 38.39375 248.53137Q39.065624 247.93762 39.346874 247.37512L40.01875 247.37512L40.01875 256.00012ZM43.253124 249.46887Q43.253124 248.547 43.70625 247.90637Q44.175 247.26575 45.05 247.26575Q45.8625 247.26575 46.39375 247.84387Q46.925 248.422 46.925 249.53137Q46.925 250.62512 46.378124 251.21887Q45.846874 251.797 45.065624 251.797Q44.284374 251.797 43.76875 251.21887Q43.253124 250.64075 43.253124 249.46887ZM45.08125 247.9845Q44.690624 247.9845 44.425 248.32825Q44.175 248.672 44.175 249.57825Q44.175 250.40637 44.425 250.75012Q44.690624 251.07825 45.08125 251.07825Q45.4875 251.07825 45.7375 250.7345Q46.003124 250.39075 46.003124 249.50012Q46.003124 248.65637 45.7375 248.32825Q45.471874 247.9845 45.08125 247.9845ZM45.08125 256.31262L49.784374 247.26575L50.64375 247.26575L45.95625 256.31262L45.08125 256.31262ZM48.8 253.9845Q48.8 253.06262 49.253124 252.422Q49.721874 251.78137 50.6125 251.78137Q51.425 251.78137 51.95625 252.3595Q52.4875 252.922 52.4875 254.047Q52.4875 255.14075 51.940624 255.7345Q51.409374 256.31262 50.6125 256.31262Q49.846874 256.31262 49.315624 255.7345Q48.8 255.15637 48.8 253.9845ZM50.64375 252.50012Q50.2375 252.50012 49.971874 252.84387Q49.721874 253.18762 49.721874 254.09387Q49.721874 254.90637 49.9875 255.25012Q50.253124 255.59387 50.64375 255.59387Q51.034374 255.59387 51.3 255.25012Q51.565624 254.90637 51.565624 254.00012Q51.565624 253.172 51.3 252.84387Q51.034374 252.50012 50.64375 252.50012Z" fill-rule="nonzero"/><path stroke="#757575" stroke-width="1.0" stroke-linecap="butt" d="M18.55 243.50012L145.23334 243.50012L164.39645 243.50012" fill-rule="nonzero"/><path fill="#9e9e9e" d="M166.39645 243.50012C166.39645 242.39555 165.50102 241.50012 164.39645 241.50012C163.29189 241.50012 162.39645 242.39555 162.39645 243.50012C162.39645 244.60469 163.29189 245.50012 164.39645 245.50012C165.50102 245.50012 166.39645 244.60469 166.39645 243.50012" fill-rule="nonzero"/><path fill="#1a1a1a" d="M560.9969 156.60092L562.0594 156.50717Q562.1375 157.16342 562.41876 157.56967Q562.7 157.97592 563.27814 158.24155Q563.8719 158.49155 564.60626 158.49155Q565.2469 158.49155 565.7469 158.30405Q566.2469 158.10092 566.48126 157.7728Q566.73126 157.42905 566.73126 157.03842Q566.73126 156.63217 566.4969 156.3353Q566.2625 156.0228 565.73126 155.81967Q565.3719 155.67905 564.1844 155.3978Q563.0125 155.11655 562.54376 154.86655Q561.91876 154.53842 561.6219 154.06967Q561.325 153.5853 561.325 152.99155Q561.325 152.35092 561.6844 151.78842Q562.0594 151.2103 562.7625 150.92905Q563.48126 150.63217 564.34064 150.63217Q565.29376 150.63217 566.02814 150.94467Q566.7625 151.24155 567.15314 151.85092Q567.54376 152.44467 567.575 153.19467L566.48126 153.2728Q566.3875 152.4603 565.8719 152.05405Q565.3719 151.63217 564.3875 151.63217Q563.35626 151.63217 562.8875 152.00717Q562.41876 152.38217 562.41876 152.91342Q562.41876 153.38217 562.7469 153.67905Q563.075 153.97592 564.45 154.28842Q565.84064 154.60092 566.35626 154.8353Q567.10626 155.19467 567.46564 155.72592Q567.825 156.24155 567.825 156.94467Q567.825 157.63217 567.4344 158.24155Q567.04376 158.8353 566.3094 159.17905Q565.575 159.50717 564.65314 159.50717Q563.48126 159.50717 562.6844 159.17905Q561.90314 158.8353 561.45 158.1478Q561.0125 157.4603 560.9969 156.60092ZM569.2469 151.99155L569.2469 150.7728L570.3094 150.7728L570.3094 151.99155L569.2469 151.99155ZM569.2469 159.36655L569.2469 153.1478L570.3094 153.1478L570.3094 159.36655L569.2469 159.36655ZM572.2469 159.36655L572.2469 153.1478L573.1844 153.1478L573.1844 154.0228Q573.48126 153.55405 573.96564 153.28842Q574.45 153.00717 575.075 153.00717Q575.7625 153.00717 576.2 153.28842Q576.65314 153.56967 576.825 154.0853Q577.575 153.00717 578.7469 153.00717Q579.6844 153.00717 580.16876 153.5228Q580.66876 154.0228 580.66876 155.10092L580.66876 159.36655L579.6219 159.36655L579.6219 155.44467Q579.6219 154.81967 579.5125 154.53842Q579.41876 154.25717 579.15314 154.0853Q578.8875 153.91342 578.5125 153.91342Q577.85626 153.91342 577.41876 154.35092Q576.9969 154.78842 576.9969 155.75717L576.9969 159.36655L575.9344 159.36655L575.9344 155.31967Q575.9344 154.61655 575.66876 154.2728Q575.41876 153.91342 574.84064 153.91342Q574.3875 153.91342 574.0125 154.1478Q573.6375 154.38217 573.46564 154.8353Q573.29376 155.28842 573.29376 156.13217L573.29376 159.36655L572.2469 159.36655Z" fill-rule="nonzero"/><path fill="#9e9e9e" d="M550.325 176.36655L550.325 174.30405L546.60626 174.30405L546.60626 173.3353L550.52814 167.7728L551.3875 167.7728L551.3875 173.3353L552.54376 173.3353L552.54376 174.30405L551.3875 174.30405L551.3875 176.36655L550.325 176.36655ZM550.325 173.3353L550.325 169.47592L547.6375 173.3353L550.325 173.3353ZM553.95 172.13217Q553.95 170.60092 554.2625 169.67905Q554.575 168.74155 555.1844 168.24155Q555.8094 167.74155 556.7469 167.74155Q557.4344 167.74155 557.95 168.0228Q558.48126 168.30405 558.825 168.8353Q559.16876 169.35092 559.35626 170.10092Q559.54376 170.85092 559.54376 172.13217Q559.54376 173.6478 559.23126 174.56967Q558.9344 175.49155 558.3094 176.00717Q557.7 176.50717 556.7469 176.50717Q555.5125 176.50717 554.79376 175.61655Q553.95 174.55405 553.95 172.13217ZM555.02814 172.13217Q555.02814 174.24155 555.52814 174.94467Q556.02814 175.6478 556.7469 175.6478Q557.48126 175.6478 557.96564 174.94467Q558.46564 174.24155 558.46564 172.13217Q558.46564 170.00717 557.96564 169.31967Q557.48126 168.61655 556.73126 168.61655Q556.0125 168.61655 555.575 169.22592Q555.02814 170.00717 555.02814 172.13217ZM561.5125 176.36655L561.5125 175.16342L562.71564 175.16342L562.71564 176.36655Q562.71564 177.0228 562.48126 177.42905Q562.2469 177.85092 561.7469 178.06967L561.45 177.61655Q561.77814 177.47592 561.9344 177.17905Q562.09064 176.8978 562.1219 176.36655L561.5125 176.36655ZM564.10626 174.38217L565.1219 174.28842Q565.2469 175.00717 565.60626 175.3353Q565.98126 175.6478 566.54376 175.6478Q567.02814 175.6478 567.3875 175.42905Q567.7625 175.19467 567.9969 174.8353Q568.23126 174.4603 568.3875 173.8353Q568.54376 173.19467 568.54376 172.53842Q568.54376 172.4603 568.54376 172.31967Q568.23126 172.81967 567.6844 173.1478Q567.1375 173.4603 566.4969 173.4603Q565.41876 173.4603 564.6844 172.69467Q563.95 171.91342 563.95 170.6478Q563.95 169.3353 564.71564 168.53842Q565.4969 167.74155 566.65314 167.74155Q567.48126 167.74155 568.16876 168.19467Q568.8719 168.6478 569.23126 169.49155Q569.59064 170.31967 569.59064 171.8978Q569.59064 173.53842 569.23126 174.5228Q568.8875 175.49155 568.16876 176.00717Q567.46564 176.50717 566.52814 176.50717Q565.5125 176.50717 564.8719 175.9603Q564.23126 175.3978 564.10626 174.38217ZM568.41876 170.5853Q568.41876 169.67905 567.9344 169.1478Q567.46564 168.61655 566.77814 168.61655Q566.075 168.61655 565.54376 169.19467Q565.02814 169.75717 565.02814 170.67905Q565.02814 171.49155 565.52814 172.00717Q566.02814 172.5228 566.7469 172.5228Q567.48126 172.5228 567.95 172.00717Q568.41876 171.49155 568.41876 170.5853ZM571.15314 169.8353Q571.15314 168.91342 571.60626 168.2728Q572.075 167.63217 572.95 167.63217Q573.7625 167.63217 574.29376 168.2103Q574.825 168.78842 574.825 169.8978Q574.825 170.99155 574.27814 171.5853Q573.7469 172.16342 572.96564 172.16342Q572.1844 172.16342 571.66876 171.5853Q571.15314 171.00717 571.15314 169.8353ZM572.98126 168.35092Q572.59064 168.35092 572.325 168.69467Q572.075 169.03842 572.075 169.94467Q572.075 170.7728 572.325 171.11655Q572.59064 171.44467 572.98126 171.44467Q573.3875 171.44467 573.6375 171.10092Q573.90314 170.75717 573.90314 169.86655Q573.90314 169.0228 573.6375 168.69467Q573.3719 168.35092 572.98126 168.35092ZM572.98126 176.67905L577.6844 167.63217L578.54376 167.63217L573.85626 176.67905L572.98126 176.67905ZM576.7 174.35092Q576.7 173.42905 577.15314 172.78842Q577.6219 172.1478 578.5125 172.1478Q579.325 172.1478 579.85626 172.72592Q580.3875 173.28842 580.3875 174.41342Q580.3875 175.50717 579.84064 176.10092Q579.3094 176.67905 578.5125 176.67905Q577.7469 176.67905 577.21564 176.10092Q576.7 175.5228 576.7 174.35092ZM578.54376 172.86655Q578.1375 172.86655 577.8719 173.2103Q577.6219 173.55405 577.6219 174.4603Q577.6219 175.2728 577.8875 175.61655Q578.15314 175.9603 578.54376 175.9603Q578.9344 175.9603 579.2 175.61655Q579.46564 175.2728 579.46564 174.36655Q579.46564 173.53842 579.2 173.2103Q578.9344 172.86655 578.54376 172.86655Z" fill-rule="nonzero"/><path stroke="#757575" stroke-width="1.0" stroke-linecap="butt" d="M581.45 163.86655L454.76666 163.86655L435.60355 163.86655" fill-rule="nonzero"/><path fill="#9e9e9e" d="M437.60355 163.86655C437.60355 162.76198 436.7081 161.86655 435.60355 161.86655C434.49896 161.86655 433.60355 162.76198 433.60355 163.86655C433.60355 164.97112 434.49896 165.86655 435.60355 165.86655C436.7081 165.86655 437.60355 164.97112 437.60355 163.86655" fill-rule="nonzero"/><path fill="#757575" d="M20.128124 37.55L20.128124 23.2375L30.4875 23.2375L30.4875 24.925L22.034374 24.925L22.034374 29.3L29.940624 29.3L29.940624 30.9875L22.034374 30.9875L22.034374 35.8625L30.815624 35.8625L30.815624 37.55L20.128124 37.55ZM32.159374 34.45625L33.909374 34.175Q34.05 35.221874 34.721874 35.784374Q35.39375 36.33125 36.596874 36.33125Q37.8 36.33125 38.378124 35.846874Q38.971874 35.346874 38.971874 34.690624Q38.971874 34.096874 38.45625 33.753124Q38.096874 33.51875 36.659374 33.159374Q34.721874 32.659374 33.971874 32.315624Q33.2375 31.95625 32.846874 31.33125Q32.45625 30.690624 32.45625 29.925Q32.45625 29.2375 32.76875 28.64375Q33.096874 28.05 33.64375 27.659374Q34.05 27.3625 34.753124 27.159374Q35.471874 26.940624 36.284374 26.940624Q37.503124 26.940624 38.425 27.3Q39.346874 27.64375 39.784374 28.253124Q40.221874 28.846874 40.39375 29.846874L38.675 30.08125Q38.55 29.284374 37.9875 28.846874Q37.425 28.39375 36.409374 28.39375Q35.190624 28.39375 34.675 28.8Q34.159374 29.190624 34.159374 29.721874Q34.159374 30.065624 34.378124 30.346874Q34.58125 30.628124 35.05 30.815624Q35.315624 30.909374 36.596874 31.253124Q38.471874 31.753124 39.20625 32.08125Q39.940624 32.39375 40.3625 33.003124Q40.784374 33.596874 40.784374 34.503124Q40.784374 35.378124 40.26875 36.159374Q39.753124 36.940624 38.784374 37.3625Q37.815624 37.784374 36.596874 37.784374Q34.58125 37.784374 33.51875 36.940624Q32.45625 36.096874 32.159374 34.45625ZM42.8625 41.51875L42.8625 27.175L44.471874 27.175L44.471874 28.51875Q45.034374 27.7375 45.7375 27.346874Q46.45625 26.940624 47.471874 26.940624Q48.8 26.940624 49.815624 27.628124Q50.83125 28.315624 51.346874 29.565624Q51.878124 30.8 51.878124 32.284374Q51.878124 33.878124 51.3 35.159374Q50.7375 36.425 49.64375 37.1125Q48.55 37.784374 47.346874 37.784374Q46.471874 37.784374 45.76875 37.409374Q45.08125 37.034374 44.628124 36.471874L44.628124 41.51875L42.8625 41.51875ZM44.45625 32.425Q44.45625 34.425 45.26875 35.378124Q46.08125 36.33125 47.2375 36.33125Q48.409374 36.33125 49.2375 35.346874Q50.08125 34.3625 50.08125 32.26875Q50.08125 30.3 49.253124 29.315624Q48.440624 28.315624 47.315624 28.315624Q46.190624 28.315624 45.315624 29.378124Q44.45625 30.425 44.45625 32.425ZM60.971874 34.20625L62.784374 34.440624Q62.3625 36.01875 61.190624 36.909374Q60.034374 37.784374 58.221874 37.784374Q55.95625 37.784374 54.6125 36.39375Q53.284374 34.9875 53.284374 32.45625Q53.284374 29.83125 54.628124 28.39375Q55.971874 26.940624 58.128124 26.940624Q60.20625 26.940624 61.51875 28.3625Q62.846874 29.76875 62.846874 32.346874Q62.846874 32.503124 62.83125 32.815624L55.096874 32.815624Q55.190624 34.51875 56.065624 35.425Q56.940624 36.33125 58.2375 36.33125Q59.20625 36.33125 59.878124 35.83125Q60.565624 35.315624 60.971874 34.20625ZM55.190624 31.3625L60.9875 31.3625Q60.878124 30.065624 60.33125 29.409374Q59.4875 28.39375 58.14375 28.39375Q56.940624 28.39375 56.1125 29.20625Q55.284374 30.003124 55.190624 31.3625ZM71.64375 33.753124L73.3625 33.971874Q73.08125 35.76875 71.90938 36.784374Q70.75313 37.784374 69.05 37.784374Q66.925 37.784374 65.62813 36.39375Q64.33125 35.003124 64.33125 32.409374Q64.33125 30.721874 64.87813 29.471874Q65.44063 28.20625 66.58125 27.58125Q67.72188 26.940624 69.06563 26.940624Q70.75313 26.940624 71.81563 27.8Q72.89375 28.659374 73.20625 30.221874L71.4875 30.4875Q71.25313 29.440624 70.62813 28.925Q70.00313 28.39375 69.12813 28.39375Q67.8 28.39375 66.97188 29.346874Q66.14375 30.3 66.14375 32.346874Q66.14375 34.440624 66.94063 35.39375Q67.7375 36.33125 69.03438 36.33125Q70.06563 36.33125 70.75313 35.70625Q71.45625 35.065624 71.64375 33.753124ZM74.87813 25.253124L74.87813 23.2375L76.64375 23.2375L76.64375 25.253124L74.87813 25.253124ZM74.87813 37.55L74.87813 27.175L76.64375 27.175L76.64375 37.55L74.87813 37.55ZM79.28438 37.55L79.28438 28.55L77.7375 28.55L77.7375 27.175L79.28438 27.175L79.28438 26.08125Q79.28438 25.034374 79.47188 24.51875Q79.72188 23.83125 80.3625 23.409374Q81.00313 22.9875 82.15938 22.9875Q82.90938 22.9875 83.8 23.159374L83.53438 24.690624Q82.9875 24.596874 82.50313 24.596874Q81.70625 24.596874 81.3625 24.940624Q81.03438 25.284374 81.03438 26.221874L81.03438 27.175L83.06563 27.175L83.06563 28.55L81.03438 28.55L81.03438 37.55L79.28438 37.55ZM84.87813 25.253124L84.87813 23.2375L86.64375 23.2375L86.64375 25.253124L84.87813 25.253124ZM84.87813 37.55L84.87813 27.175L86.64375 27.175L86.64375 37.55L84.87813 37.55ZM95.64375 33.753124L97.3625 33.971874Q97.08125 35.76875 95.90938 36.784374Q94.75313 37.784374 93.05 37.784374Q90.925 37.784374 89.62813 36.39375Q88.33125 35.003124 88.33125 32.409374Q88.33125 30.721874 88.87813 29.471874Q89.44063 28.20625 90.58125 27.58125Q91.72188 26.940624 93.06563 26.940624Q94.75313 26.940624 95.81563 27.8Q96.89375 28.659374 97.20625 30.221874L95.4875 30.4875Q95.25313 29.440624 94.62813 28.925Q94.00313 28.39375 93.12813 28.39375Q91.8 28.39375 90.97188 29.346874Q90.14375 30.3 90.14375 32.346874Q90.14375 34.440624 90.94063 35.39375Q91.7375 36.33125 93.03438 36.33125Q94.06563 36.33125 94.75313 35.70625Q95.45625 35.065624 95.64375 33.753124ZM105.64375 36.26875Q104.65938 37.096874 103.75313 37.440624Q102.84688 37.784374 101.81563 37.784374Q100.1125 37.784374 99.19063 36.95625Q98.26875 36.1125 98.26875 34.815624Q98.26875 34.05 98.6125 33.425Q98.97188 32.8 99.53438 32.425Q100.09688 32.034374 100.8 31.83125Q101.31563 31.70625 102.3625 31.565624Q104.4875 31.315624 105.4875 30.971874Q105.50313 30.6125 105.50313 30.503124Q105.50313 29.440624 105.00313 28.9875Q104.33125 28.39375 103.00313 28.39375Q101.75313 28.39375 101.15938 28.83125Q100.58125 29.26875 100.3 30.378124L98.58125 30.14375Q98.81563 29.034374 99.34688 28.3625Q99.87813 27.675 100.89375 27.315624Q101.90938 26.940624 103.25313 26.940624Q104.58125 26.940624 105.40938 27.253124Q106.2375 27.565624 106.62813 28.05Q107.01875 28.51875 107.175 29.2375Q107.26875 29.690624 107.26875 30.8625L107.26875 33.20625Q107.26875 35.659374 107.37813 36.315624Q107.4875 36.95625 107.83125 37.55L105.9875 37.55Q105.72188 37.003124 105.64375 36.26875ZM105.4875 32.346874Q104.53438 32.7375 102.6125 33.003124Q101.53438 33.159374 101.08125 33.3625Q100.64375 33.55 100.39375 33.925Q100.14375 34.3 100.14375 34.76875Q100.14375 35.471874 100.675 35.940624Q101.20625 36.409374 102.2375 36.409374Q103.25313 36.409374 104.03438 35.971874Q104.83125 35.51875 105.20625 34.753124Q105.4875 34.14375 105.4875 32.9875L105.4875 32.346874ZM116.64375 33.753124L118.3625 33.971874Q118.08125 35.76875 116.90938 36.784374Q115.75313 37.784374 114.05 37.784374Q111.925 37.784374 110.62813 36.39375Q109.33125 35.003124 109.33125 32.409374Q109.33125 30.721874 109.87813 29.471874Q110.44063 28.20625 111.58125 27.58125Q112.72188 26.940624 114.06563 26.940624Q115.75313 26.940624 116.81563 27.8Q117.89375 28.659374 118.20625 30.221874L116.4875 30.4875Q116.25313 29.440624 115.62813 28.925Q115.00313 28.39375 114.12813 28.39375Q112.8 28.39375 111.97188 29.346874Q111.14375 30.3 111.14375 32.346874Q111.14375 34.440624 111.94063 35.39375Q112.7375 36.33125 114.03438 36.33125Q115.06563 36.33125 115.75313 35.70625Q116.45625 35.065624 116.64375 33.753124ZM112.65938 39.05L113.175 37.33125L114.47188 37.33125L114.15938 38.378124Q114.9875 38.471874 115.40938 38.878124Q115.83125 39.3 115.83125 39.8Q115.83125 40.534374 115.12813 41.096874Q114.425 41.659374 113.00313 41.659374Q112.20625 41.659374 111.59688 41.55L111.70625 40.409374Q112.33125 40.440624 112.62813 40.440624Q113.53438 40.440624 113.90938 40.190624Q114.19063 39.9875 114.19063 39.70625Q114.19063 39.534374 114.08125 39.39375Q113.97188 39.253124 113.65938 39.159374Q113.3625 39.065624 112.65938 39.05ZM126.64375 36.26875Q125.65938 37.096874 124.75313 37.440624Q123.84688 37.784374 122.81563 37.784374Q121.1125 37.784374 120.19063 36.95625Q119.26875 36.1125 119.26875 34.815624Q119.26875 34.05 119.6125 33.425Q119.97188 32.8 120.53438 32.425Q121.09688 32.034374 121.8 31.83125Q122.31563 31.70625 123.3625 31.565624Q125.4875 31.315624 126.4875 30.971874Q126.50313 30.6125 126.50313 30.503124Q126.50313 29.440624 126.00313 28.9875Q125.33125 28.39375 124.00313 28.39375Q122.75313 28.39375 122.15938 28.83125Q121.58125 29.26875 121.3 30.378124L119.58125 30.14375Q119.81563 29.034374 120.34688 28.3625Q120.87813 27.675 121.89375 27.315624Q122.90938 26.940624 124.25313 26.940624Q125.58125 26.940624 126.40938 27.253124Q127.2375 27.565624 127.62813 28.05Q128.01875 28.51875 128.175 29.2375Q128.26875 29.690624 128.26875 30.8625L128.26875 33.20625Q128.26875 35.659374 128.37813 36.315624Q128.4875 36.95625 128.83125 37.55L126.9875 37.55Q126.72188 37.003124 126.64375 36.26875ZM126.4875 32.346874Q125.53438 32.7375 123.6125 33.003124Q122.53438 33.159374 122.08125 33.3625Q121.64375 33.55 121.39375 33.925Q121.14375 34.3 121.14375 34.76875Q121.14375 35.471874 121.675 35.940624Q122.20625 36.409374 123.2375 36.409374Q124.25313 36.409374 125.03438 35.971874Q125.83125 35.51875 126.20625 34.753124Q126.4875 34.14375 126.4875 32.9875L126.4875 32.346874ZM120.6125 25.64375Q120.6125 24.628124 121.175 24.01875Q121.7375 23.425 122.59688 23.425Q123.20625 23.425 124.25313 23.940624Q124.83125 24.2375 125.175 24.2375Q125.4875 24.2375 125.64375 24.065624Q125.81563 23.89375 125.87813 23.39375L127.15938 23.39375Q127.12813 24.503124 126.59688 25.065624Q126.06563 25.6125 125.2375 25.6125Q124.62813 25.6125 123.6125 25.065624Q122.95625 24.721874 122.65938 24.721874Q122.33125 24.721874 122.12813 24.95625Q121.90938 25.190624 121.925 25.64375L120.6125 25.64375ZM130.22188 32.3625Q130.22188 29.4875 131.81563 28.096874Q133.15938 26.940624 135.08125 26.940624Q137.22188 26.940624 138.56563 28.346874Q139.925 29.753124 139.925 32.221874Q139.925 34.221874 139.33125 35.378124Q138.7375 36.51875 137.58125 37.159374Q136.44063 37.784374 135.08125 37.784374Q132.89375 37.784374 131.55 36.39375Q130.22188 34.9875 130.22188 32.3625ZM132.01875 32.3625Q132.01875 34.3625 132.87813 35.346874Q133.75313 36.33125 135.08125 36.33125Q136.39375 36.33125 137.25313 35.346874Q138.12813 34.346874 138.12813 32.3Q138.12813 30.378124 137.25313 29.39375Q136.37813 28.39375 135.08125 28.39375Q133.75313 28.39375 132.87813 29.39375Q132.01875 30.378124 132.01875 32.3625ZM147.45625 32.95625L149.2375 32.8Q149.3625 33.8625 149.81563 34.55Q150.28438 35.2375 151.25313 35.675Q152.2375 36.096874 153.47188 36.096874Q154.55 36.096874 155.37813 35.784374Q156.20625 35.45625 156.6125 34.89375Q157.01875 34.33125 157.01875 33.659374Q157.01875 32.9875 156.62813 32.4875Q156.2375 31.9875 155.34688 31.64375Q154.76875 31.409374 152.78438 30.940624Q150.81563 30.471874 150.03438 30.05Q149.00313 29.51875 148.50313 28.721874Q148.00313 27.925 148.00313 26.940624Q148.00313 25.846874 148.6125 24.909374Q149.22188 23.971874 150.40938 23.4875Q151.59688 22.9875 153.03438 22.9875Q154.62813 22.9875 155.84688 23.503124Q157.06563 24.01875 157.70625 25.01875Q158.3625 26.003124 158.40938 27.26875L156.59688 27.409374Q156.45625 26.05 155.6125 25.3625Q154.76875 24.659374 153.1125 24.659374Q151.39375 24.659374 150.59688 25.3Q149.81563 25.925 149.81563 26.8Q149.81563 27.58125 150.37813 28.08125Q150.925 28.58125 153.2375 29.096874Q155.55 29.6125 156.40938 30.003124Q157.65938 30.58125 158.25313 31.471874Q158.84688 32.346874 158.84688 33.503124Q158.84688 34.64375 158.19063 35.659374Q157.53438 36.675 156.3 37.2375Q155.08125 37.8 153.55 37.8Q151.6125 37.8 150.3 37.2375Q148.9875 36.659374 148.2375 35.51875Q147.4875 34.378124 147.45625 32.95625ZM167.65938 37.55L167.65938 36.01875Q166.45625 37.784374 164.37813 37.784374Q163.45625 37.784374 162.65938 37.440624Q161.8625 37.08125 161.47188 36.55Q161.09688 36.01875 160.94063 35.2375Q160.83125 34.721874 160.83125 33.596874L160.83125 27.175L162.58125 27.175L162.58125 32.925Q162.58125 34.3 162.69063 34.784374Q162.8625 35.471874 163.39375 35.878124Q163.94063 36.26875 164.72188 36.26875Q165.51875 36.26875 166.20625 35.8625Q166.90938 35.45625 167.19063 34.76875Q167.4875 34.065624 167.4875 32.7375L167.4875 27.175L169.2375 27.175L169.2375 37.55L167.65938 37.55ZM171.8625 41.51875L171.8625 27.175L173.47188 27.175L173.47188 28.51875Q174.03438 27.7375 174.7375 27.346874Q175.45625 26.940624 176.47188 26.940624Q177.8 26.940624 178.81563 27.628124Q179.83125 28.315624 180.34688 29.565624Q180.87813 30.8 180.87813 32.284374Q180.87813 33.878124 180.3 35.159374Q179.7375 36.425 178.64375 37.1125Q177.55 37.784374 176.34688 37.784374Q175.47188 37.784374 174.76875 37.409374Q174.08125 37.034374 173.62813 36.471874L173.62813 41.51875L171.8625 41.51875ZM173.45625 32.425Q173.45625 34.425 174.26875 35.378124Q175.08125 36.33125 176.2375 36.33125Q177.40938 36.33125 178.2375 35.346874Q179.08125 34.3625 179.08125 32.26875Q179.08125 30.3 178.25313 29.315624Q177.44063 28.315624 176.31563 28.315624Q175.19063 28.315624 174.31563 29.378124Q173.45625 30.425 173.45625 32.425ZM182.83125 37.55L182.83125 23.2375L184.58125 23.2375L184.58125 37.55L182.83125 37.55ZM193.97188 34.20625L195.78438 34.440624Q195.3625 36.01875 194.19063 36.909374Q193.03438 37.784374 191.22188 37.784374Q188.95625 37.784374 187.6125 36.39375Q186.28438 34.9875 186.28438 32.45625Q186.28438 29.83125 187.62813 28.39375Q188.97188 26.940624 191.12813 26.940624Q193.20625 26.940624 194.51875 28.3625Q195.84688 29.76875 195.84688 32.346874Q195.84688 32.503124 195.83125 32.815624L188.09688 32.815624Q188.19063 34.51875 189.06563 35.425Q189.94063 36.33125 191.2375 36.33125Q192.20625 36.33125 192.87813 35.83125Q193.56563 35.315624 193.97188 34.20625ZM188.19063 31.3625L193.9875 31.3625Q193.87813 30.065624 193.33125 29.409374Q192.4875 28.39375 191.14375 28.39375Q189.94063 28.39375 189.1125 29.20625Q188.28438 30.003124 188.19063 31.3625ZM197.8625 37.55L197.8625 27.175L199.44063 27.175L199.44063 28.628124Q199.925 27.878124 200.7375 27.409374Q201.55 26.940624 202.58125 26.940624Q203.7375 26.940624 204.47188 27.425Q205.20625 27.89375 205.51875 28.753124Q206.75313 26.940624 208.72188 26.940624Q210.26875 26.940624 211.09688 27.8Q211.925 28.659374 211.925 30.425L211.925 37.55L210.175 37.55L210.175 31.01875Q210.175 29.95625 210.00313 29.503124Q209.83125 29.034374 209.37813 28.753124Q208.94063 28.471874 208.33125 28.471874Q207.2375 28.471874 206.50313 29.20625Q205.78438 29.925 205.78438 31.51875L205.78438 37.55L204.03438 37.55L204.03438 30.815624Q204.03438 29.64375 203.59688 29.065624Q203.175 28.471874 202.19063 28.471874Q201.45625 28.471874 200.81563 28.8625Q200.19063 29.253124 199.90938 30.003124Q199.62813 30.753124 199.62813 32.175L199.62813 37.55L197.8625 37.55ZM221.97188 34.20625L223.78438 34.440624Q223.3625 36.01875 222.19063 36.909374Q221.03438 37.784374 219.22188 37.784374Q216.95625 37.784374 215.6125 36.39375Q214.28438 34.9875 214.28438 32.45625Q214.28438 29.83125 215.62813 28.39375Q216.97188 26.940624 219.12813 26.940624Q221.20625 26.940624 222.51875 28.3625Q223.84688 29.76875 223.84688 32.346874Q223.84688 32.503124 223.83125 32.815624L216.09688 32.815624Q216.19063 34.51875 217.06563 35.425Q217.94063 36.33125 219.2375 36.33125Q220.20625 36.33125 220.87813 35.83125Q221.56563 35.315624 221.97188 34.20625ZM216.19063 31.3625L221.9875 31.3625Q221.87813 30.065624 221.33125 29.409374Q220.4875 28.39375 219.14375 28.39375Q217.94063 28.39375 217.1125 29.20625Q216.28438 30.003124 216.19063 31.3625ZM225.8625 37.55L225.8625 27.175L227.45625 27.175L227.45625 28.659374Q228.59688 26.940624 230.75313 26.940624Q231.69063 26.940624 232.47188 27.284374Q233.26875 27.6125 233.65938 28.159374Q234.05 28.70625 234.20625 29.45625Q234.3 29.95625 234.3 31.175L234.3 37.55L232.53438 37.55L232.53438 31.2375Q232.53438 30.159374 232.33125 29.628124Q232.12813 29.096874 231.59688 28.784374Q231.08125 28.471874 230.37813 28.471874Q229.25313 28.471874 228.44063 29.190624Q227.62813 29.89375 227.62813 31.878124L227.62813 37.55L225.8625 37.55ZM240.70625 35.971874L240.95625 37.534374Q240.22188 37.690624 239.62813 37.690624Q238.675 37.690624 238.14375 37.39375Q237.62813 37.08125 237.40938 36.596874Q237.19063 36.096874 237.19063 34.51875L237.19063 28.55L235.90938 28.55L235.90938 27.175L237.19063 27.175L237.19063 24.6125L238.94063 23.55L238.94063 27.175L240.70625 27.175L240.70625 28.55L238.94063 28.55L238.94063 34.6125Q238.94063 35.3625 239.03438 35.58125Q239.12813 35.784374 239.33125 35.925Q239.55 36.05 239.94063 36.05Q240.22188 36.05 240.70625 35.971874ZM249.64375 36.26875Q248.65938 37.096874 247.75313 37.440624Q246.84688 37.784374 245.81563 37.784374Q244.1125 37.784374 243.19063 36.95625Q242.26875 36.1125 242.26875 34.815624Q242.26875 34.05 242.6125 33.425Q242.97188 32.8 243.53438 32.425Q244.09688 32.034374 244.8 31.83125Q245.31563 31.70625 246.3625 31.565624Q248.4875 31.315624 249.4875 30.971874Q249.50313 30.6125 249.50313 30.503124Q249.50313 29.440624 249.00313 28.9875Q248.33125 28.39375 247.00313 28.39375Q245.75313 28.39375 245.15938 28.83125Q244.58125 29.26875 244.3 30.378124L242.58125 30.14375Q242.81563 29.034374 243.34688 28.3625Q243.87813 27.675 244.89375 27.315624Q245.90938 26.940624 247.25313 26.940624Q248.58125 26.940624 249.40938 27.253124Q250.2375 27.565624 250.62813 28.05Q251.01875 28.51875 251.175 29.2375Q251.26875 29.690624 251.26875 30.8625L251.26875 33.20625Q251.26875 35.659374 251.37813 36.315624Q251.4875 36.95625 251.83125 37.55L249.9875 37.55Q249.72188 37.003124 249.64375 36.26875ZM249.4875 32.346874Q248.53438 32.7375 246.6125 33.003124Q245.53438 33.159374 245.08125 33.3625Q244.64375 33.55 244.39375 33.925Q244.14375 34.3 244.14375 34.76875Q244.14375 35.471874 244.675 35.940624Q245.20625 36.409374 246.2375 36.409374Q247.25313 36.409374 248.03438 35.971874Q248.83125 35.51875 249.20625 34.753124Q249.4875 34.14375 249.4875 32.9875L249.4875 32.346874ZM253.84688 37.55L253.84688 27.175L255.425 27.175L255.425 28.753124Q256.03436 27.64375 256.55 27.3Q257.0656 26.940624 257.675 26.940624Q258.5656 26.940624 259.4875 27.503124L258.8781 29.14375Q258.2375 28.753124 257.59686 28.753124Q257.01874 28.753124 256.55 29.1125Q256.09686 29.45625 255.89375 30.065624Q255.6125 31.003124 255.6125 32.1125L255.6125 37.55L253.84688 37.55Z" fill-rule="nonzero"/></svg>